<?xml version="1.0" encoding="utf-8"?>
<!-- Generator: Adobe Illustrator 24.1.3, SVG Export Plug-In . SVG Version: 6.00 Build 0)  -->
<svg version="1.1" id="Layer_1" xmlns="http://www.w3.org/2000/svg" xmlns:xlink="http://www.w3.org/1999/xlink" x="0px" y="0px"
	 viewBox="0 0 78 78" style="enable-background:new 0 0 78 78;" xml:space="preserve">
<style type="text/css">
	.st0{fill:none;}
	.st1{fill:#010202;}
</style>
<g id="bx-phone-call" transform="translate(-3 -3)">
	<path id="패스_19" class="st0" d="M59.9,73.2l7.8-7.8L57.6,55.3l-5,5c-0.9,0.9-2.3,1.3-3.6,1.1c-0.5-0.1-11.1-2.4-17.6-8.9
		S22.7,35.4,22.6,35c-0.3-1.3,0.1-2.6,1.1-3.6l5-5L18.6,16.3l-7.8,7.8c0.1,4.8,1.3,21.5,14.5,34.6C38.4,71.8,55,73.1,59.9,73.2
		L59.9,73.2z"/>
	<path id="패스_20" class="st1" d="M59.8,81h0.1c2.1,0,4-0.8,5.5-2.3L76,68.1c1.5-1.5,1.5-4,0-5.5c0,0,0,0,0,0L60.4,47
		c-1.5-1.5-4-1.5-5.5,0c0,0,0,0,0,0l-6.2,6.2c-2.9-0.9-8.3-2.8-11.7-6.2s-5.4-8.8-6.2-11.7l6.2-6.2c1.5-1.5,1.5-4,0-5.5c0,0,0,0,0,0
		L21.4,8c-1.5-1.5-4-1.5-5.5,0L5.3,18.6C3.8,20.1,3,22.1,3,24.2c0.1,5.6,1.6,24.8,16.8,40S54.3,80.9,59.8,81L59.8,81z M18.6,16.3
		l10.1,10.1l-5,5c-0.9,0.9-1.3,2.3-1.1,3.6c0.1,0.5,2.4,11.1,8.9,17.6s17.1,8.8,17.6,8.9c1.3,0.3,2.6-0.1,3.6-1.1l5-5l10.1,10.1
		l-7.8,7.8c-4.9-0.1-21.5-1.4-34.6-14.5C12.2,45.6,10.9,28.9,10.8,24.1L18.6,16.3L18.6,16.3z M73.2,38.1H81C81,18.1,65.9,3,45.9,3
		v7.8C61.7,10.8,73.2,22.3,73.2,38.1z"/>
	<path id="패스_21" class="st1" d="M45.9,26.4c8.2,0,11.7,3.5,11.7,11.7h7.8c0-12.6-6.9-19.5-19.5-19.5V26.4z"/>
</g>
</svg>
