
<svg version="1.1" id="layer" xmlns="http://www.w3.org/2000/svg" xmlns:xlink="http://www.w3.org/1999/xlink" x="0px" y="0px"
	viewBox="0 0 599.9 112.8" style="enable-background:new 0 0 599.9 112.8;" xml:space="preserve">
	<g>
		<path d="M71.8,26.6c-1.6,5.2-9.3,28.5-10.2,31.3c-0.6,1.7-0.8,2-1.4,2c-0.5,0-0.8-0.3-1.4-1.8c-1-2.4-11.7-27.9-16.3-39.3
			c-4.6,11.4-15,36.9-16,39.3c-0.6,1.5-1,1.8-1.4,1.8c-0.6,0-0.8-0.3-1.4-2c-0.9-2.8-8.7-26.2-10.4-31.3C6.5,6.3,6,5.1,4.8,3.9
			C4,3.1,2.9,2.7,0.9,2.7c-1.1,0-1.2-1.5,0-1.5H20c1.2,0,1.1,1.5,0,1.5c-3,0-3.6,1.1-2.9,3.9c0.6,2.4,6.7,23,9.1,31.1
			C31.5,26.1,39.6,8.6,42.1,2.9c0.5-1.2,1.3-1.2,1.9,0c2.5,5.6,13.2,29.3,15.6,35c2.9-9.6,7.6-25.8,9-31C69.1,5,69,4,68.6,3.4
			c-0.5-0.6-1.4-0.8-2.8-0.8c-1.1,0-1.2-1.5,0-1.5h18.7c1.2,0,1.1,1.5,0,1.5c-2.1,0-3.1,0.3-3.9,1.2C79.2,5.2,78.5,5,71.8,26.6
			M100.3,1.3c-1.2,0-1.1,1.5,0,1.5c2.4,0,3.5,0.3,4.4,1.2c1,1,1.2,1.8,1.2,6.4v39.2c0,4.6-0.2,5.4-1.2,6.4c-0.9,0.9-2,1.2-4.4,1.2
			c-1.1,0-1.2,1.5,0,1.5h39.8c0.9,0,1.3-0.3,1.3-1.6c0-3.6,0.2-6.7,0.2-8.2c0-1-1.1-1-1.4-0.3c-0.1,0.4-0.3,1.5-1,2.2
			c-1.4,1.5-3.7,2.1-9.3,2.1h-14.7V31.5h11.2c3.3,0,4.8,0.5,5.5,1.2c0.6,0.7,0.5,1.5,0.7,1.9c0.3,0.7,1.4,0.6,1.4-0.3V23.5
			c0-0.9-1-1-1.3-0.5c-0.2,0.3-0.1,0.6-0.2,1c-0.1,0.4-0.3,0.7-0.5,1c-0.7,0.7-2.1,1.1-5.5,1.1h-11.2v-19h12c5.6,0,7.9,0.7,9.3,2.1
			c0.6,0.7,0.8,1.6,1,2c0.3,0.7,1.4,0.6,1.4-0.3c0-1.5-0.2-4.3-0.2-8c0-1.2-0.4-1.4-1.6-1.4h-36.9V1.3z M544.5,1.3
			c-1.2,0-1.1,1.5,0,1.5c2.5,0,4.2,0.5,4.9,1.2c1,1,1.2,1.8,1.2,6.4v39.2c0,4.6-0.2,5.4-1.2,6.4c-0.9,0.9-2,1.2-4.4,1.2
			c-1.1,0-1.2,1.5,0,1.5h19.3c13,0,19.9-2.3,26.1-7.7c7.6-6.7,9.5-15.3,9.5-22.9c0-6.5-2.8-13.8-7.5-18.5C587,4.2,579.3,1.4,568,1.4
			h-23.5V1.3z M559.8,52.8V7.5c1.6-0.3,4.5-0.6,7.7-0.6c7.8,0,12.6,2,16.2,5.5c4.5,4.4,6.3,10.5,6.3,17.5c0,4.7-1,10.6-4.6,15.3
			c-3.5,4.7-9.2,8-18.8,8C561.6,53.2,560.8,53.1,559.8,52.8 M450.7,29.3c0-17.2-14-29.3-30.9-29.3c-19,0-32,14.4-32,29.8
			c0,17.3,14,30.3,31.3,30.3C435.7,60,450.7,48.2,450.7,29.3 M419.7,54.6c-14.2,0-21.7-13.4-21.7-25.8c0-13.9,9.2-23.3,21.1-23.3
			c11.1,0,21.5,9.8,21.5,25.8C440.6,44.3,432.4,54.6,419.7,54.6 M530.4,29.3c0-17.2-14-29.3-30.9-29.3c-19,0-32,14.4-32,29.8
			c0,17.3,14,30.3,31.3,30.3C515.4,60,530.4,48.2,530.4,29.3 M499.4,54.6c-14.2,0-21.7-13.4-21.7-25.8c0-13.9,9.2-23.3,21.1-23.3
			c11.1,0,21.5,9.8,21.5,25.8C520.3,44.3,512.2,54.6,499.4,54.6 M360.1,1.3c-1.2,0-1.1,1.5,0,1.5c1.4,0,2.3,0.3,2.8,0.8
			c0.5,0.6,0.5,1.7,0,3.5c-1.4,5.2-6.1,21.4-9,31c-2.4-5.7-13.1-29.4-15.6-35c-0.5-1.3-1.4-1.3-1.9,0c-2.5,5.7-10.6,23.2-15.9,34.8
			c-2.4-8.1-8.4-28.7-9.1-31.1c-0.8-2.8-0.1-3.9,2.9-3.9c1.1,0,1.2-1.5,0-1.5h-19.1c-1.2,0-1.1,1.5,0,1.5c2.1,0,3.1,0.3,3.9,1.2
			c1.2,1.2,1.7,2.4,8.5,22.7c1.7,5.1,9.5,28.5,10.4,31.3c0.6,1.7,0.8,2,1.4,2c0.5,0,0.8-0.3,1.4-1.8c1-2.4,11.3-27.9,16-39.3
			c4.6,11.4,15.3,36.9,16.3,39.3c0.6,1.5,1,1.8,1.4,1.8c0.6,0,0.8-0.3,1.4-2c0.9-2.8,8.6-26.1,10.2-31.3c6.7-21.7,7.4-21.5,8.5-22.7
			c0.8-0.8,1.9-1.2,3.9-1.2c1.1,0,1.2-1.5,0-1.5L360.1,1.3L360.1,1.3z M274,38.5c0-4.6-0.2-5.4-1.2-6.4c-0.9-0.9-2-1.2-4.4-1.2
			c-1.1,0-1.2-1.5,0-1.5h13.4c1,0,1.3,0.3,1.3,1.4c0,6.3,0,25.7,0,26.1c0,0.6,0,0.7-1.1,0.9c-9.2,1.7-12.6,2.3-17.7,2.3
			c-12.5,0-21.3-3.9-27.4-10.1c-4.2-4.2-7.5-11.4-7.5-20c0-8,3-15.1,7.9-20c7-7.2,17.1-10.1,26.8-10.1c4,0,10.7,0.6,14.1,1.4
			c1,0.2,1.1,0.6,1.1,1.6v9.9c0,0.4-0.1,0.6-0.2,0.7c-0.3,0.3-1.1,0.4-1.3-0.5c-0.2-1.4-0.9-2.7-2.2-3.8c-2.3-2.1-6.2-3.6-12-3.6
			c-7.2,0-13.2,2.2-17.4,6.3c-4.3,4.3-6.5,10.5-6.5,16.9c0,7.4,2,13.6,7.5,19c3.7,3.7,8.7,6.3,16,6.3c4.6,0,8.4-1,10.7-1.9V38.5H274z
			M180.6,1.3c11.3,0,19,2.8,24.4,8.2c4.7,4.7,7.5,12,7.5,18.5c0,7.6-1.8,16.2-9.5,22.9c-6.2,5.4-13.1,7.7-26.1,7.7h-19.3
			c-1.2,0-1.1-1.5,0-1.5c2.4,0,3.5-0.3,4.4-1.2c1-1,1.2-1.8,1.2-6.4V10.3c0-4.6-0.2-5.4-1.2-6.4c-0.9-0.9-2-1.2-4.4-1.2
			c-1.1,0-1.2-1.5,0-1.5L180.6,1.3z M179.2,53.2c9.7,0,15.3-3.4,18.8-8c3.5-4.7,4.6-10.6,4.6-15.3c0-7-1.8-13-6.3-17.5
			c-3.6-3.6-8.4-5.5-16.2-5.5c-3.2,0-6.1,0.3-7.7,0.6v45.3C173.4,53.1,174.2,53.2,179.2,53.2"/>
		</g>
		<polyline points="193.2,94.1 203.8,94.1 203.8,96.5 195.9,96.5 195.9,102.2 203.6,102.2 203.6,104.6 195.9,104.6 195.9,110.4 
			204.1,110.4 204.1,112.8 193.2,112.8 "/>
			<polyline points="224.5,94.1 227,94.1 227,112.8 224.7,112.8 212.2,98.4 212.2,112.8 209.7,112.8 209.7,94.1 211.9,94.1 
				224.5,108.6 "/>
				<g>
					<path d="M243.8,103.6h6.3v7.9c-2.3,1-4.6,1.5-6.8,1.5c-3.1,0-5.6-0.9-7.4-2.7c-1.8-1.8-2.8-4-2.8-6.7c0-2.8,1-5.1,2.9-7
						s4.3-2.8,7.2-2.8c1,0,2,0.1,3,0.3c0.9,0.2,2.1,0.6,3.6,1.3v2.7c-2.2-1.3-4.4-1.9-6.6-1.9c-2,0-3.8,0.7-5.2,2.1
						c-1.4,1.4-2.1,3.1-2.1,5.1c0,2.1,0.7,3.9,2.1,5.2c1.4,1.3,3.2,2,5.4,2c1.1,0,2.3-0.2,3.8-0.7l0.3-0.1v-3.9h-3.6"/>
					</g>
					<polyline points="256.8,94.1 259.4,94.1 259.4,110.4 267.8,110.4 267.8,112.8 256.8,112.8 "/>
					<path d="M278.9,94h1.9l8.4,18.8h-2.7l-2.5-5.5h-8l-2.4,5.5h-2.7 M282.8,104.9l-3-6.8l-2.8,6.8H282.8z"/>
					<polyline points="308.7,94.1 311.3,94.1 311.3,112.8 309,112.8 296.5,98.4 296.5,112.8 294,112.8 294,94.1 296.1,94.1 308.7,108.6 
						"/>
						<g>
							<path d="M318,112.8V94.2h6.3c2.5,0,4.5,0.4,6,1.1c1.5,0.8,2.7,1.9,3.5,3.4c0.9,1.5,1.3,3.1,1.3,4.8c0,1.3-0.2,2.4-0.7,3.6
								c-0.5,1.1-1.2,2.1-2.1,3s-2,1.6-3.2,2c-0.7,0.3-1.4,0.5-1.9,0.5c-0.6,0.1-1.7,0.1-3.4,0.1 M324.1,96.5h-3.3v13.9h3.4
								c1.3,0,2.4-0.1,3.1-0.3c0.7-0.2,1.4-0.4,1.9-0.7c0.5-0.3,0.9-0.6,1.4-1c1.3-1.3,2-3,2-5.1c0-2-0.7-3.6-2-4.9
								c-0.5-0.5-1.1-0.9-1.7-1.2c-0.6-0.3-1.2-0.5-1.8-0.6C326.3,96.6,325.3,96.5,324.1,96.5"/>
							</g>
							<rect x="355.1" y="94.1" width="2.7" height="18.7"/>
							<polyline points="367.3,94.1 379.4,94.1 371,113 368.6,112 375.4,96.7 367.3,96.7 "/>
							<g>
								<path d="M385.2,94.1h8.3v2.4h-5.9v4.7c0.2,0,0.4,0,0.6,0c1.8,0,3.3,0.6,4.5,1.6c1.2,1.1,1.8,2.5,1.8,4.2s-0.6,3.2-1.7,4.3
									c-1.2,1.1-2.6,1.6-4.5,1.6c-1.5,0-3-0.4-4.4-1.1v-2.7c1.3,0.9,2.7,1.3,3.9,1.3c1.1,0,2.1-0.3,2.8-1c0.8-0.7,1.1-1.5,1.1-2.4
									c0-1-0.4-1.8-1.2-2.5c-0.8-0.7-1.9-1-3.1-1c-1.1,0-1.8,0.1-2.2,0.3"/>
									<path d="M403.9,113l-1.6-1.9c1.4-0.9,2.6-1.9,3.6-3.2c1-1.3,1.7-2.5,2.1-3.8c-0.8,0.5-1.8,0.8-3,0.8c-1.4,0-2.7-0.5-3.7-1.6
										s-1.5-2.3-1.5-3.8s0.5-2.9,1.6-3.9c1.1-1.1,2.4-1.6,4-1.6c1.8,0,3.2,0.6,4.3,1.9c1.1,1.3,1.7,2.9,1.7,4.9c0,2.3-0.7,4.6-2.1,6.9
										C407.9,109.9,406.1,111.7,403.9,113 M408.5,101.4c0.1-0.7,0.2-1.2,0.2-1.4c0-1.1-0.3-1.9-0.9-2.6s-1.4-1-2.3-1s-1.6,0.3-2.1,0.9
										c-0.6,0.6-0.9,1.3-0.9,2.2c0,0.8,0.3,1.5,0.9,2.1s1.4,0.9,2.2,0.9C406.6,102.4,407.6,102,408.5,101.4"/>
									</g>
</svg>
