<?xml version="1.0" encoding="utf-8"?>
<!-- Generator: Adobe Illustrator 24.1.3, SVG Export Plug-In . SVG Version: 6.00 Build 0)  -->
<svg version="1.1" id="Layer_1" xmlns="http://www.w3.org/2000/svg" xmlns:xlink="http://www.w3.org/1999/xlink" x="0px" y="0px"
	 viewBox="0 0 78 86.7" style="enable-background:new 0 0 78 86.7;" xml:space="preserve">
<style type="text/css">
	.st0{fill:none;}
	.st1{fill:#010202;}
</style>
<g id="bx-phone-call" transform="translate(-3 -3)">
	<path id="패스_19" class="st0" d="M-79.6,69.3l7.8-7.8l-10.1-10.1l-5,5c-0.9,0.9-2.3,1.3-3.6,1.1c-0.4-0.1-11.1-2.4-17.6-8.9
		s-8.8-17.1-8.9-17.6c-0.3-1.3,0.1-2.6,1.1-3.6l5-5l-10.1-10.1l-7.8,7.8c0.1,4.8,1.3,21.5,14.5,34.6
		C-101.2,67.9-84.5,69.2-79.6,69.3L-79.6,69.3z"/>
	<path id="패스_20" class="st1" d="M-79.7,77.1h0.1c2.1,0,4-0.8,5.5-2.3l10.6-10.6c1.5-1.5,1.5-4,0-5.5c0,0,0,0,0,0l-15.6-15.6
		c-1.5-1.5-4-1.5-5.5,0c0,0,0,0,0,0l-6.2,6.2c-2.9-0.9-8.3-2.8-11.7-6.2c-3.4-3.4-5.4-8.8-6.2-11.7l6.2-6.2c1.5-1.5,1.5-4,0-5.5
		c0,0,0,0,0,0l-15.6-15.6c-1.5-1.5-4-1.5-5.5,0l-10.6,10.6c-1.5,1.5-2.3,3.5-2.3,5.6c0.1,5.6,1.6,24.8,16.8,40S-85.3,77-79.7,77.1
		L-79.7,77.1z M-120.9,12.4l10.1,10.1l-5,5c-0.9,0.9-1.3,2.3-1.1,3.6c0.1,0.5,2.4,11.1,8.9,17.6s17.1,8.8,17.6,8.9
		c1.3,0.3,2.6-0.1,3.6-1.1l5-5l10.1,10.1l-7.8,7.8c-4.9-0.1-21.5-1.4-34.6-14.5c-13.1-13.1-14.4-29.8-14.5-34.6L-120.9,12.4
		L-120.9,12.4z M-66.3,34.2h7.8c0-20-15.1-35.1-35.1-35.1v7.8C-77.8,6.9-66.3,18.4-66.3,34.2z"/>
	<path id="패스_21" class="st1" d="M-93.6,22.5c8.2,0,11.7,3.5,11.7,11.7h7.8c0-12.6-6.9-19.5-19.5-19.5V22.5z"/>
</g>
<g id="bx-buildings" transform="translate(-4.5 -3)">
	<path id="패스_31" class="st1" d="M73.8,3H30.5c-4.8,0-8.7,3.9-8.7,8.7v26h-8.7c-4.8,0-8.7,3.9-8.7,8.7v39c0,2.4,1.9,4.3,4.3,4.3
		h69.3c2.4,0,4.3-1.9,4.3-4.3V11.7C82.5,6.9,78.6,3,73.8,3z M13.2,46.3h26V81h-26V46.3z M73.8,81h-26V46.3c0-4.8-3.9-8.7-8.7-8.7
		h-8.7v-26h43.3V81z"/>
	<path id="패스_32" class="st1" d="M39.2,20.3h8.7V29h-8.7V20.3z M56.5,20.3h8.7V29h-8.7V20.3z M56.5,37.8h8.7v8.5h-8.7V37.8z
		 M56.5,55h8.7v8.7h-8.7V55z M21.8,55h8.7v8.7h-8.7V55z"/>
</g>
</svg>
